v -0.00990600 -0.24874900 0.00005100
v -0.00990600 -0.24874900 0.00005100
v -0.00990600 -0.24874900 0.00005100
v -0.00990600 -0.24874900 0.24800200
v -0.00990600 -0.24874900 0.24800200
v -0.00990600 -0.24874900 0.24800200
v -0.00990600 -0.00001100 0.24800200
v -0.00990600 -0.00001100 0.24800200
v -0.00990600 -0.00001100 0.24800200
v -0.00990600 -0.00001100 0.00005100
v -0.00990600 -0.00001100 0.00005100
v -0.00990600 -0.00001100 0.00005100
v 0.00009400 -0.24874900 0.00005100
v 0.00009400 -0.24874900 0.00005100
v 0.00009400 -0.24874900 0.00005100
v 0.00009400 -0.24874900 0.24800200
v 0.00009400 -0.24874900 0.24800200
v 0.00009400 -0.24874900 0.24800200
v 0.00009400 -0.00001100 0.00005100
v 0.00009400 -0.00001100 0.00005100
v 0.00009400 -0.00001100 0.00005100
v 0.00009400 -0.00001100 0.24800200
v 0.00009400 -0.00001100 0.24800200
v 0.00009400 -0.00001100 0.24800200
vn 0.00000000 -1.00000000 0.00000000
vn -1.00000000 0.00000000 0.00000000
vn 0.00000000 0.00000000 -1.00000000
vn 0.00000000 -1.00000000 0.00000000
vn -1.00000000 0.00000000 0.00000000
vn 0.00000000 0.00000000 1.00000000
vn -1.00000000 0.00000000 0.00000000
vn 0.00000000 0.00000000 1.00000000
vn 0.00000000 1.00000000 0.00000000
vn -1.00000000 0.00000000 0.00000000
vn 0.00000000 0.00000000 -1.00000000
vn 0.00000000 1.00000000 0.00000000
vn 0.00000000 -1.00000000 0.00000000
vn 0.00000000 0.00000000 -1.00000000
vn 1.00000000 0.00000000 0.00000000
vn 0.00000000 -1.00000000 0.00000000
vn 1.00000000 0.00000000 0.00000000
vn 0.00000000 0.00000000 1.00000000
vn 1.00000000 0.00000000 0.00000000
vn 0.00000000 0.00000000 -1.00000000
vn 0.00000000 1.00000000 0.00000000
vn 1.00000000 0.00000000 0.00000000
vn 0.00000000 1.00000000 0.00000000
vn 0.00000000 0.00000000 1.00000000
vt 0.67666700 0.65666700
vt 0.32234200 0.34333300
vt 0.34333300 0.01000000
vt 0.67666700 0.34333300
vt 0.01000000 0.34333300
vt 0.01000000 0.01000000
vt 0.01000000 0.65666700
vt 0.01000000 0.32333300
vt 0.34333300 0.34333300
vt 0.32234200 0.65666700
vt 0.34333300 0.32333300
vt 0.34333300 0.65666700
vt 0.68930400 0.65666700
vt 0.35593000 0.01000000
vt 0.98900900 0.01000000
vt 0.68930400 0.34333300
vt 0.67666700 0.01000000
vt 0.02259700 0.01000000
vt 0.98900900 0.32333300
vt 0.35593000 0.32333300
vt 0.35597000 0.65666700
vt 0.67666700 0.32333300
vt 0.35597000 0.34333300
vt 0.02259700 0.32333300
f 4/4/4 1/1/1 13/13/13
f 2/2/2 5/5/5 7/7/7
f 7/7/7 10/10/10 2/2/2
f 14/14/14 3/3/3 11/11/11
f 13/13/13 16/16/16 4/4/4
f 17/17/17 15/15/15 19/19/19
f 11/11/11 20/20/20 14/14/14
f 19/19/19 22/22/22 17/17/17
f 23/23/23 21/21/21 12/12/12
f 24/24/24 8/8/8 6/6/6
f 12/12/12 9/9/9 23/23/23
f 6/6/6 18/18/18 24/24/24

